# xmcd
#
# Track frame offsets:
#       165
#       22345
#       45052
#       76317
#       92117
#       109125
#       132737
#       147815
#       167607
#       181992
#
# Disc length: 2669 seconds
#
# Revision: 0
# Processed by: cddbd v1.5PL3 Copyright (c) Steve Scherf et al.
# Submitted via: WhereIsIt 3.57
#
DISCID=800a6b0a
DTITLE=Blue Band - Love's Sweet Poison
DYEAR=1900
DGENRE=Blues
TTITLE0=Sweet Poison
TTITLE1=Standing on Shaky Ground
TTITLE2=Simulation Stimulation
TTITLE3=She's Got the Mojo and the Say So
TTITLE4=Git Yer Shit Together
TTITLE5=I Wanna Love Ya
TTITLE6=I Feel It's Real
TTITLE7=Ain't No Sunshine
TTITLE8=Roll It Over
TTITLE9=Something's Got to Change
EXTD=
EXTT0=
EXTT1=
EXTT2=
EXTT3=
EXTT4=
EXTT5=
EXTT6=
EXTT7=
EXTT8=
EXTT9=
PLAYORDER=
